<svg id="Calque_1" data-name="Calque 1" xmlns="http://www.w3.org/2000/svg" viewBox="0 0 366.05 81.02"><defs><style>.cls-1{font-size:68.54px;font-family:AlibabaSans-Heavy, Alibaba Sans;font-weight:800;}.cls-1,.cls-3{fill:#f29863;}.cls-2{letter-spacing:0.02em;}.cls-4{fill:none;stroke:#f29863;stroke-miterlimit:10;}</style></defs><text class="cls-1" transform="translate(86.26 58.06)">carpa<tspan class="cls-2" x="191.51" y="0">r</tspan><tspan x="220.91" y="0">ts</tspan></text><path class="cls-3" d="M93,26.27l-37.8-8.53a3.57,3.57,0,0,0-.79-.07,32.31,32.31,0,0,0-5.14-.43A31.27,31.27,0,0,0,18,48.5c0,.24,0,.47,0,.71a3.18,3.18,0,0,0-.21,1.12V75.85a3.3,3.3,0,0,0,3.3,3.3h3a3.3,3.3,0,0,0,3.3-3.3v-5A31.25,31.25,0,0,0,76,32.31l14.87,3.36a3.3,3.3,0,0,0,3.94-2.49l.67-3A3.3,3.3,0,0,0,93,26.27ZM49.28,70.17A21.67,21.67,0,1,1,71,48.5,21.67,21.67,0,0,1,49.28,70.17Z" transform="translate(-17.57 -10.98)"/><g id="Car_Rims" data-name="Car Rims"><path class="cls-3" d="M44.48,52.14a5.72,5.72,0,0,1-1.12-1.94c-6.47,2.47-4.42,1.7-9.14,3.48a15.58,15.58,0,0,0,3,5C41.05,55.39,39.43,56.86,44.48,52.14Z" transform="translate(-17.57 -10.98)"/><path class="cls-3" d="M43.33,46.09a6.34,6.34,0,0,1,1.11-2c-5.16-4.59-3.53-3.16-7.36-6.4a15.7,15.7,0,0,0-2.95,5.12Z" transform="translate(-17.57 -10.98)"/><path class="cls-3" d="M48.19,41.94a5.39,5.39,0,0,1,2.19,0c1.4-6.79.95-4.63,1.86-9.59a15.93,15.93,0,0,0-5.92,0C47.23,37.3,46.81,35.14,48.19,41.94Z" transform="translate(-17.57 -10.98)"/><path class="cls-3" d="M54.12,44.11a6.15,6.15,0,0,1,1.11,2l9.2-3.26a15.86,15.86,0,0,0-2.94-5.12C57.65,41,59.29,39.52,54.12,44.11Z" transform="translate(-17.57 -10.98)"/><path class="cls-3" d="M55.21,50.2a6.17,6.17,0,0,1-1.05,1.87,86.21,86.21,0,0,0,7.17,6.64,16,16,0,0,0,3-5.08C64.35,53.55,64.83,53.85,55.21,50.2Z" transform="translate(-17.57 -10.98)"/><path class="cls-3" d="M53.91,46.56a4.87,4.87,0,1,0,.18.71A4.35,4.35,0,0,0,53.91,46.56ZM49.28,50.2a2.1,2.1,0,1,1,2.09-2.1A2.1,2.1,0,0,1,49.28,50.2Z" transform="translate(-17.57 -10.98)"/><path class="cls-3" d="M50.38,54.27a5.43,5.43,0,0,1-2.2,0c-1.4,6.79-1,4.62-1.86,9.59a15.93,15.93,0,0,0,5.92,0C51.33,58.91,51.75,61.06,50.38,54.27Z" transform="translate(-17.57 -10.98)"/></g><line class="cls-4" x1="78.46" y1="15.95" x2="76.28" y2="25.42"/><line class="cls-4" x1="9.72" y1="68.35" y2="68.35"/></svg>