<?xml version="1.0" encoding="utf-8"?>
<!-- Generator: Adobe Illustrator 25.0.0, SVG Export Plug-In . SVG Version: 6.00 Build 0)  -->
<svg version="1.1" id="Calque_1" xmlns="http://www.w3.org/2000/svg" xmlns:xlink="http://www.w3.org/1999/xlink" x="0px" y="0px"
	 viewBox="0 0 400 400" style="enable-background:new 0 0 400 400;" xml:space="preserve">
<style type="text/css">
	.st0{fill:#F29863;}
	.st1{fill:none;stroke:#F29863;stroke-miterlimit:10;}
</style>
<path class="st0" d="M376.36,89.67L193.27,48.35c-1.3-0.29-2.59-0.37-3.86-0.34c-8.09-1.34-16.39-2.07-24.87-2.07
	c-83.63,0-151.42,67.79-151.42,151.42c0,1.15,0.06,2.28,0.09,3.42c-0.62,1.7-1.01,3.52-1.01,5.43v123.65
	c0,8.82,7.15,15.97,15.97,15.97h14.72c8.82,0,15.97-7.15,15.97-15.97v-24.11c27.29,26.61,64.56,43.03,105.69,43.03
	c83.63,0,151.42-67.79,151.42-151.42c0-28.71-7.99-55.56-21.87-78.43l72.01,16.25c8.6,1.94,17.15-3.46,19.09-12.06l3.24-14.36
	C390.37,100.16,384.97,91.61,376.36,89.67z M164.54,302.36c-57.98,0-104.99-47.01-104.99-104.99c0-57.99,47.01-104.99,104.99-104.99
	s104.99,47.01,104.99,104.99C269.53,255.35,222.52,302.36,164.54,302.36z"/>
<g id="Car_Rims_13_">
	<path class="st0" d="M141.26,214.97c-2.39-2.76-4.22-5.95-5.41-9.39c-31.36,11.99-21.42,8.24-44.3,16.89
		c3.32,8.96,8.31,17.22,14.7,24.33C124.67,230.75,116.79,237.88,141.26,214.97z"/>
	<path class="st0" d="M135.71,185.68c1.2-3.49,3.02-6.73,5.37-9.56c-25-22.27-17.1-15.34-35.68-31.02
		c-6.28,7.29-11.11,15.71-14.26,24.8L135.71,185.68z"/>
	<path class="st0" d="M159.23,165.57c3.51-0.72,7.13-0.72,10.64,0c6.76-32.88,4.6-22.4,8.99-46.46c-9.47-1.79-19.19-1.79-28.65,0
		C154.6,143.1,152.58,132.66,159.23,165.57z"/>
	<path class="st0" d="M187.95,176.11c2.39,2.82,4.23,6.06,5.41,9.56l44.57-15.78c-3.14-9.09-7.98-17.51-14.26-24.8
		C205.08,160.77,213.02,153.85,187.95,176.11z"/>
	<path class="st0" d="M193.26,205.58c-1.14,3.3-2.86,6.38-5.07,9.09c-0.47,0.47,14.19,14.23,34.73,32.13
		c6.39-7.21,11.38-15.55,14.7-24.6C237.52,221.83,239.85,223.28,193.26,205.58z"/>
	<path class="st0" d="M186.97,187.94c-4.12-12.39-17.52-19.1-29.91-14.97c-12.39,4.12-19.1,17.52-14.97,29.91
		c3.69,11.09,14.92,17.82,26.44,15.84c12.88-2.21,21.52-14.43,19.32-27.31C187.64,190.24,187.35,189.08,186.97,187.94z
		 M164.54,205.58c-5.6,0-10.14-4.54-10.14-10.14c0-5.6,4.54-10.14,10.14-10.14c5.6,0,10.14,4.54,10.14,10.14
		C174.67,201.04,170.13,205.58,164.54,205.58z"/>
	<path class="st0" d="M169.84,225.31c-3.51,0.72-7.13,0.72-10.64,0c-6.76,32.88-4.6,22.4-8.99,46.46c9.47,1.79,19.19,1.79,28.65,0
		C174.47,247.78,176.5,258.22,169.84,225.31z"/>
</g>
<line class="st1" x1="391" y1="92.88" x2="380.41" y2="138.77"/>
<line class="st1" x1="59.83" y1="344.88" x2="12.74" y2="344.88"/>
</svg>
